<?xml version="1.0" standalone="no"?>
<!DOCTYPE svg PUBLIC "-//W3C//DTD SVG 20010904//EN"
 "http://www.w3.org/TR/2001/REC-SVG-20010904/DTD/svg10.dtd">
<svg version="1.0" xmlns="http://www.w3.org/2000/svg"
 width="750.000000pt" height="750.000000pt" viewBox="0 0 750.000000 750.000000"
 preserveAspectRatio="xMidYMid meet">

<g transform="translate(0.000000,750.000000) scale(0.100000,-0.100000)"
fill="#000000" stroke="none">
<path d="M970 7384 c-428 -53 -758 -280 -841 -579 -18 -64 -18 -216 0 -280 73
-261 353 -480 711 -555 63 -14 182 -60 464 -184 253 -110 384 -163 393 -157
17 9 26 -3 -159 208 -60 68 -108 127 -108 133 0 5 9 10 20 10 11 0 62 16 115
36 52 19 100 32 106 28 7 -4 9 -3 6 3 -8 13 107 76 118 65 5 -4 5 -2 2 4 -4 7
11 24 36 39 160 107 284 327 287 515 1 24 -20 126 -36 180 -32 106 -213 304
-348 379 -100 57 -232 106 -349 132 -90 19 -337 33 -417 23z m335 -49 c126
-20 226 -50 321 -94 425 -199 562 -585 322 -905 -28 -38 -85 -95 -126 -128
-108 -85 -296 -172 -420 -193 -28 -4 -42 -12 -42 -22 0 -9 48 -70 107 -137 59
-66 114 -129 122 -139 16 -20 25 -23 -379 153 -129 56 -240 106 -245 110 -6 5
-50 16 -98 25 -340 64 -605 257 -688 503 -27 80 -32 210 -10 287 49 173 181
320 381 424 122 63 226 95 410 124 62 10 263 6 345 -8z"/>
<path d="M467 6903 c-4 -3 -7 -87 -7 -185 l0 -178 25 0 c25 0 25 1 25 85 l0
85 95 0 95 0 0 -85 c0 -84 0 -85 25 -85 l25 0 -2 183 c-3 174 -4 182 -23 182
-18 0 -20 -8 -23 -72 l-3 -73 -94 0 -95 0 0 75 c0 66 -2 75 -18 75 -10 0 -22
-3 -25 -7z"/>
<path d="M1110 6725 c0 -178 1 -185 20 -185 19 0 20 7 20 185 0 178 -1 185
-20 185 -19 0 -20 -7 -20 -185z"/>
<path d="M1220 6725 c0 -178 1 -185 20 -185 19 0 20 7 20 185 0 178 -1 185
-20 185 -19 0 -20 -7 -20 -185z"/>
<path d="M1630 6823 c0 -118 10 -193 25 -193 14 0 25 92 25 208 0 70 -1 72
-25 72 -25 0 -25 -1 -25 -87z"/>
<path d="M880 6803 c-23 -8 -60 -45 -60 -59 0 -22 34 -20 53 3 35 43 125 24
115 -24 -2 -13 -19 -21 -66 -29 -70 -13 -112 -43 -112 -81 0 -74 83 -100 169
-54 17 10 21 9 21 -4 0 -9 9 -15 23 -15 21 0 22 2 19 97 -3 112 -15 151 -49
164 -26 10 -89 11 -113 2z m110 -162 c0 -52 -83 -94 -118 -59 -16 16 -15 43 2
57 11 9 60 23 109 30 4 1 7 -12 7 -28z"/>
<path d="M1383 6795 c-46 -20 -66 -65 -61 -136 3 -44 10 -65 28 -84 50 -53
137 -50 184 6 21 25 26 41 26 85 0 66 -20 108 -60 129 -36 18 -75 19 -117 0z
m97 -35 c25 -13 43 -73 36 -115 -7 -36 -46 -75 -75 -75 -52 0 -89 74 -71 142
15 53 62 74 110 48z"/>
<path d="M1630 6565 c0 -20 5 -25 25 -25 20 0 25 5 25 25 0 20 -5 25 -25 25
-20 0 -25 -5 -25 -25z"/>
<path d="M3310 6891 c-30 -3 -64 -12 -75 -17 -11 -6 -36 -14 -56 -18 -21 -4
-42 -13 -49 -21 -7 -8 -19 -15 -26 -15 -17 0 -140 -66 -179 -96 -89 -69 -205
-203 -205 -237 0 -8 -8 -25 -19 -38 -10 -13 -20 -33 -22 -43 -7 -33 -33 -42
-84 -28 -59 16 -93 15 -185 -2 -68 -13 -167 -49 -180 -65 -3 -3 -32 -24 -64
-46 -103 -70 -158 -134 -219 -258 -31 -62 -59 -128 -62 -147 -4 -19 -14 -56
-22 -82 -19 -60 -16 -369 5 -390 6 -6 12 -19 12 -27 0 -44 121 -246 164 -275
16 -10 26 -26 26 -41 0 -21 -5 -24 -57 -31 -162 -19 -285 -120 -367 -299 -26
-55 -28 -70 -28 -186 l-1 -126 53 -109 c104 -213 272 -333 470 -335 41 0 83
-3 92 -7 17 -7 68 -93 68 -116 0 -6 5 -17 11 -23 6 -6 26 -47 44 -92 28 -69
108 -200 195 -320 54 -74 141 -166 254 -268 65 -59 68 -65 58 -88 -6 -14 -20
-25 -29 -25 -43 0 -256 -78 -273 -101 -3 -3 -45 -28 -95 -54 -49 -26 -105 -59
-125 -74 -50 -38 -115 -81 -123 -81 -3 0 -43 -25 -87 -55 -44 -30 -83 -55 -86
-55 -4 0 -20 -12 -38 -26 -167 -139 -287 -260 -326 -330 -17 -28 -37 -57 -45
-64 -8 -7 -15 -19 -15 -28 0 -8 -6 -23 -13 -31 -12 -14 -34 -70 -77 -191 -7
-19 -16 -59 -21 -89 -5 -29 -14 -62 -19 -72 -15 -27 -12 -123 5 -155 8 -16 15
-39 15 -51 0 -38 70 -172 129 -246 32 -40 66 -85 77 -102 21 -33 169 -181 231
-231 80 -66 201 -154 211 -154 5 0 15 -6 21 -14 7 -8 31 -24 54 -36 23 -12 72
-43 110 -68 95 -66 147 -96 197 -116 8 -4 35 -18 60 -32 143 -82 224 -120 310
-146 19 -5 40 -14 47 -20 7 -5 36 -15 65 -23 29 -7 69 -19 88 -25 120 -43 144
-50 166 -50 14 0 37 -6 52 -14 15 -7 70 -18 122 -25 52 -6 118 -15 145 -21 80
-14 343 -12 405 4 30 8 84 17 120 21 36 4 77 14 92 21 15 8 40 14 55 14 15 0
48 9 72 20 24 11 51 20 60 20 9 1 34 9 56 20 22 11 48 19 58 20 9 0 34 9 54
20 21 11 47 20 58 20 12 0 30 7 41 15 10 8 25 15 33 15 34 0 394 190 513 271
86 58 92 62 230 143 63 38 119 86 234 200 203 204 235 248 295 421 21 62 24
86 24 220 -1 132 -4 161 -27 244 -25 84 -81 211 -108 243 -6 7 -23 32 -38 54
-33 51 -154 179 -202 216 -19 14 -49 39 -66 55 -17 15 -75 59 -130 96 -144 99
-205 143 -241 172 -41 34 -101 74 -127 86 -30 14 -62 33 -79 48 -39 32 -158
81 -237 97 -19 3 -52 17 -72 31 -35 21 -37 26 -27 46 12 22 47 53 80 72 25 14
175 161 234 229 50 58 146 200 166 246 6 14 34 75 64 135 29 61 56 123 60 140
4 16 12 33 18 37 7 4 48 8 92 8 123 0 241 45 323 124 62 59 149 194 178 276
19 55 24 90 24 165 0 100 -17 167 -67 266 -27 55 -153 176 -192 186 -14 3 -32
11 -40 17 -8 6 -66 16 -130 21 -108 9 -116 12 -128 35 -13 26 -17 148 -7 188
4 14 23 31 48 44 57 29 193 171 262 275 57 86 59 90 63 166 l3 78 -53 49 c-59
54 -59 52 6 115 41 40 73 96 96 172 19 59 19 63 2 100 -9 21 -28 50 -42 66
-22 24 -32 27 -85 27 -60 0 -61 -1 -104 -50 -48 -55 -118 -100 -154 -100 -13
0 -33 -7 -44 -15 -37 -28 -90 -18 -193 36 -103 54 -174 118 -169 153 2 11 27
37 58 57 59 41 117 100 137 140 38 77 53 123 53 167 0 44 -4 52 -47 96 -47 47
-49 48 -100 44 -53 -5 -75 -19 -115 -77 -8 -11 -32 -34 -54 -51 -21 -16 -45
-35 -52 -41 -7 -5 -41 -20 -75 -32 -50 -17 -84 -22 -177 -21 l-115 0 -90 48
c-86 45 -201 96 -221 96 -5 1 -27 9 -49 20 -22 11 -48 19 -58 20 -9 0 -34 9
-54 20 -21 11 -50 20 -66 20 -15 0 -44 7 -65 16 -30 13 -83 17 -267 19 -126 2
-255 0 -285 -4z m127 -1056 c12 -8 27 -31 33 -51 7 -20 18 -48 26 -62 8 -15
14 -30 14 -34 0 -17 116 -206 162 -265 76 -96 207 -206 287 -239 172 -71 230
-92 286 -103 28 -5 68 -15 90 -21 60 -17 337 -24 437 -12 95 12 184 37 210 59
9 8 27 13 40 11 l23 -3 3 -400 c1 -220 -2 -445 -8 -500 -11 -113 -34 -225 -55
-272 -8 -17 -15 -37 -15 -45 0 -8 -4 -18 -9 -24 -5 -5 -23 -43 -41 -84 -28
-63 -86 -165 -117 -205 -4 -5 -21 -30 -38 -55 -46 -70 -212 -230 -300 -290
-92 -62 -175 -104 -225 -115 -19 -4 -40 -12 -47 -17 -7 -6 -27 -14 -45 -18
-18 -5 -53 -16 -78 -24 -190 -65 -454 -63 -680 4 -219 66 -251 80 -371 167
-106 77 -205 179 -300 308 -69 94 -167 275 -204 375 -28 78 -65 223 -65 261 0
20 -8 72 -17 115 -16 68 -18 134 -18 475 l0 396 40 49 c22 27 55 65 75 85 64
65 101 108 180 212 43 56 95 121 116 145 35 41 116 102 133 102 5 0 19 8 32
18 31 24 107 52 167 62 87 14 255 12 279 -5z m-1275 -996 c19 -10 20 -17 13
-162 -4 -91 -2 -215 5 -310 15 -206 7 -217 -115 -158 -79 38 -124 87 -177 191
-38 77 -42 92 -43 160 0 65 3 80 25 109 57 79 126 130 214 161 28 10 52 18 54
19 2 0 12 -4 24 -10z m3270 -41 c67 -33 125 -85 155 -136 26 -43 28 -55 28
-147 -1 -92 -3 -104 -30 -149 -16 -27 -38 -58 -49 -70 -54 -56 -152 -110 -188
-104 -22 3 -22 3 -21 313 1 171 2 311 2 313 3 10 68 -2 103 -20z m-2334 -1878
c63 -34 125 -57 169 -65 24 -4 45 -10 48 -15 3 -4 22 -11 42 -15 21 -4 52 -15
68 -25 49 -30 331 -45 500 -26 165 18 254 45 430 132 39 19 78 32 86 29 12 -4
19 -33 27 -113 18 -165 26 -448 13 -456 -14 -9 -38 5 -84 46 -62 58 -117 79
-204 81 -82 2 -159 -21 -227 -67 -35 -23 -70 -25 -154 -6 -60 14 -65 13 -105
-8 -23 -12 -48 -22 -55 -22 -8 0 -51 20 -95 44 -117 63 -221 80 -324 55 -34
-9 -61 -28 -115 -80 -39 -38 -76 -69 -84 -69 -7 0 -16 16 -20 37 -8 42 3 539
12 554 8 14 32 11 72 -11z m1723 -144 c2 -2 17 -191 30 -378 11 -165 11 -222
-1 -360 -7 -89 -15 -320 -17 -513 -2 -192 -6 -361 -9 -374 l-5 -23 -377 6
c-207 4 -404 9 -437 11 -33 2 -343 0 -690 -4 -473 -7 -633 -6 -642 2 -19 18
-23 1577 -5 1600 22 26 101 52 115 38 8 -8 14 -81 18 -234 6 -238 10 -260 65
-358 17 -30 43 -92 57 -138 70 -215 159 -332 281 -370 47 -14 81 -19 109 -15
88 13 218 63 301 116 33 21 71 38 85 38 89 -1 207 -32 251 -66 34 -26 178 -67
256 -72 165 -10 235 49 294 248 25 83 60 152 95 190 13 14 38 54 55 90 18 36
37 74 43 85 7 12 14 112 18 240 4 121 8 230 8 243 1 34 39 44 73 19 16 -12 28
-21 29 -21z m-2673 -1015 l-3 -636 -44 2 c-59 3 -114 41 -194 136 -73 86 -105
147 -148 280 -47 147 -53 190 -41 293 10 83 17 104 77 220 49 96 79 142 118
179 29 28 68 68 87 89 49 56 119 99 137 85 11 -10 13 -126 11 -648z m3245 618
c58 -30 261 -265 310 -359 60 -116 87 -273 68 -407 -19 -136 -41 -172 -192
-325 -134 -135 -186 -171 -217 -152 -14 9 -16 79 -17 615 0 332 3 612 7 622
10 20 13 21 41 6z"/>
<path d="M3039 4760 c-20 -11 -50 -41 -68 -68 l-31 -49 0 -164 0 -165 31 -42
c22 -30 40 -43 65 -48 74 -14 126 14 179 95 27 40 28 46 29 189 l1 147 -29 38
c-30 39 -101 87 -127 87 -8 -1 -30 -9 -50 -20z"/>
<path d="M4369 4752 c-28 -12 -70 -70 -89 -124 -15 -43 -18 -71 -13 -148 10
-180 40 -233 141 -252 38 -7 53 -4 89 13 24 12 50 34 58 50 35 66 42 264 14
350 -29 85 -130 140 -200 111z"/>
<path d="M3342 3993 c-17 -6 -52 -77 -52 -103 0 -11 8 -48 18 -81 14 -52 28
-72 90 -135 79 -81 142 -116 247 -140 117 -26 228 -14 325 36 55 28 100 61
100 73 0 8 60 90 93 127 51 57 72 138 45 172 -24 28 -62 48 -95 48 -41 0 -89
-41 -134 -115 -46 -76 -105 -105 -216 -105 -135 0 -204 41 -262 157 -11 23
-31 49 -43 57 -21 15 -88 20 -116 9z"/>
<path d="M3694 1659 c-29 -15 -74 -124 -74 -182 0 -42 5 -54 33 -81 64 -65
176 -53 243 27 32 38 28 82 -14 154 -47 80 -123 113 -188 82z"/>
</g>
</svg>
