<?xml version="1.0" standalone="no"?>
<!DOCTYPE svg PUBLIC "-//W3C//DTD SVG 20010904//EN"
 "http://www.w3.org/TR/2001/REC-SVG-20010904/DTD/svg10.dtd">
<svg version="1.0" xmlns="http://www.w3.org/2000/svg"
 width="199.000000pt" height="199.000000pt" viewBox="0 0 199.000000 199.000000"
 preserveAspectRatio="xMidYMid meet">
<metadata>
Created by potrace 1.14, written by Peter Selinger 2001-2017
</metadata>
<g transform="translate(0.000000,199.000000) scale(0.100000,-0.100000)"
fill="#000000" stroke="none">
<path d="M845 1821 c-51 -16 -135 -87 -135 -113 0 -9 -16 -14 -50 -14 -40 0
-57 -6 -87 -31 -87 -70 -111 -193 -55 -282 26 -43 27 -47 9 -48 -33 -3 -68
-33 -87 -77 -42 -93 30 -207 134 -210 13 -1 30 -23 55 -69 20 -38 58 -91 84
-118 41 -42 46 -50 30 -55 -63 -19 -213 -115 -266 -169 -31 -32 -66 -89 -73
-120 -16 -63 -15 -86 5 -127 52 -109 228 -235 416 -299 58 -20 89 -24 180 -23
98 1 119 4 195 33 186 69 357 200 385 293 20 67 8 133 -34 197 -44 66 -220
193 -299 216 -22 6 -21 9 32 62 31 31 70 83 86 116 17 34 36 62 43 63 58 10
75 17 100 42 55 55 64 134 22 198 -18 28 -61 48 -117 53 -15 2 -9 61 6 61 19
0 75 72 86 110 7 25 5 33 -10 42 -18 11 -18 13 6 41 25 29 28 44 18 71 -7 18
-49 22 -59 6 -3 -6 -19 -17 -36 -25 -27 -14 -32 -14 -69 5 -47 24 -49 33 -15
63 15 13 28 37 32 59 5 34 3 38 -21 44 -19 4 -33 0 -57 -20 -17 -14 -34 -26
-37 -27 -4 0 -20 -3 -36 -5 -16 -3 -46 3 -70 14 -118 56 -226 71 -311 43z"/>
</g>
</svg>
